/* XPM */
static char * icon_xpm[] = {
"22 22 223 2",
"  	c None",
". 	c #27AE60",
"+ 	c #27AF60",
"@ 	c #27B060",
"# 	c #27A75F",
"$ 	c #28A05E",
"% 	c #28A55F",
"& 	c #27B160",
"* 	c #27B260",
"= 	c #28965D",
"- 	c #297958",
"; 	c #2A6455",
"> 	c #295853",
", 	c #285752",
"' 	c #2A6154",
") 	c #2A7458",
"! 	c #298F5C",
"~ 	c #27AC60",
"{ 	c #2B4E52",
"] 	c #25354A",
"^ 	c #25334A",
"/ 	c #374558",
"( 	c #3B485B",
"_ 	c #27364C",
": 	c #243249",
"< 	c #2A4850",
"[ 	c #2A6956",
"} 	c #28A35F",
"| 	c #27AD60",
"1 	c #2B6756",
"2 	c #2B3F4F",
"3 	c #27394C",
"4 	c #727D87",
"5 	c #B5B9BD",
"6 	c #C8CBCE",
"7 	c #C7CACD",
"8 	c #B8BCBF",
"9 	c #848D96",
"0 	c #324255",
"a 	c #293B4E",
"b 	c #2B5B54",
"c 	c #28A15E",
"d 	c #297257",
"e 	c #314254",
"f 	c #B8BCC1",
"g 	c #F3F3F3",
"h 	c #FFFFFF",
"i 	c #FFFFFE",
"j 	c #FEFEFE",
"k 	c #FDFDFD",
"l 	c #EBEBEB",
"m 	c #C4C6C8",
"n 	c #465665",
"o 	c #293A4D",
"p 	c #2A6556",
"q 	c #27AB60",
"r 	c #27915A",
"s 	c #2A4B50",
"t 	c #BDC2C6",
"u 	c #F5F6F7",
"v 	c #B3BAC0",
"w 	c #F4F5F6",
"x 	c #F8F8F8",
"y 	c #C9CBCD",
"z 	c #3A4A5B",
"A 	c #2A414F",
"B 	c #29875A",
"C 	c #26AC5E",
"D 	c #287154",
"E 	c #243449",
"F 	c #7B858F",
"G 	c #FBFBFC",
"H 	c #E9EBED",
"I 	c #354658",
"J 	c #9CA4AD",
"K 	c #989EA5",
"L 	c #2A6856",
"M 	c #27A95F",
"N 	c #26A15C",
"O 	c #285B50",
"P 	c #243349",
"Q 	c #CBCFD4",
"R 	c #FAFAFB",
"S 	c #959FA7",
"T 	c #4D5D6D",
"U 	c #CAD0D5",
"V 	c #CCCED0",
"W 	c #3B495B",
"X 	c #295251",
"Y 	c #289D5E",
"Z 	c #269759",
"` 	c #27504E",
" .	c #3B495C",
"..	c #DFE2E5",
"+.	c #D7DDE1",
"@.	c #424B5A",
"#.	c #505462",
"$.	c #A2ABB3",
"%.	c #B9BFC6",
"&.	c #B8BEC4",
"*.	c #BEC3C9",
"=.	c #D8DADD",
"-.	c #576371",
";.	c #27454E",
">.	c #28975D",
",.	c #27AE5F",
"'.	c #259458",
").	c #264F4D",
"!.	c #3F4D5F",
"~.	c #E0E2E5",
"{.	c #E9E3E5",
"].	c #915254",
"^.	c #45313D",
"/.	c #62727F",
"(.	c #7D8893",
"_.	c #7B8792",
":.	c #87919C",
"<.	c #DCDFE1",
"[.	c #5A6574",
"}.	c #27444E",
"|.	c #27AD5F",
"1.	c #259858",
"2.	c #285750",
"3.	c #28374C",
"4.	c #D6DADD",
"5.	c #FFFEFE",
"6.	c #F3A59D",
"7.	c #D99794",
"8.	c #BEBEC3",
"9.	c #E2E5E7",
"0.	c #ECEEEF",
"a.	c #ECEDEF",
"b.	c #EEF0F1",
"c.	c #DBDEE0",
"d.	c #425061",
"e.	c #284E51",
"f.	c #289B5E",
"g.	c #24A35A",
"h.	c #276650",
"i.	c #223147",
"j.	c #99A2AB",
"k.	c #FCFCFC",
"l.	c #F2A198",
"m.	c #F4ADA6",
"n.	c #FDFEFE",
"o.	c #FDFEFF",
"p.	c #B7BCC1",
"q.	c #243248",
"r.	c #2A6355",
"s.	c #28A65F",
"t.	c #25A95C",
"u.	c #247D52",
"v.	c #29454F",
"w.	c #334456",
"x.	c #E5E8EB",
"y.	c #FCE6E4",
"z.	c #F4ABA4",
"A.	c #F2F3F4",
"B.	c #4E5C6A",
"C.	c #283B4D",
"D.	c #298059",
"E.	c #27B161",
"F.	c #26AC5F",
"G.	c #229C56",
"H.	c #285F51",
"I.	c #283A4D",
"J.	c #4D5C6B",
"K.	c #EAEDEF",
"L.	c #FEFFFF",
"M.	c #F5F6F6",
"N.	c #707C88",
"O.	c #24364A",
"P.	c #2B5C55",
"Q.	c #28A45F",
"R.	c #27AF61",
"S.	c #25A75C",
"T.	c #238D53",
"U.	c #2A5551",
"V.	c #28394C",
"W.	c #3D4D5E",
"X.	c #B0B7BE",
"Y.	c #E3E5E7",
"Z.	c #EAECEE",
"`.	c #EBEDEF",
" +	c #E4E7E9",
".+	c #C4C9CE",
"++	c #556371",
"@+	c #243549",
"#+	c #2C5053",
"$+	c #28935C",
"%+	c #27B261",
"&+	c #24A65A",
"*+	c #238C53",
"=+	c #285B51",
"-+	c #29404E",
";+	c #223148",
">+	c #626E7C",
",+	c #65717F",
"'+	c #4A5869",
")+	c #233349",
"!+	c #273A4C",
"~+	c #2A5953",
"{+	c #27B461",
"]+	c #25A75B",
"^+	c #239855",
"/+	c #257551",
"(+	c #275E50",
"_+	c #274C4E",
":+	c #25414B",
"<+	c #25404B",
"[+	c #26484C",
"}+	c #287A56",
"|+	c #27A15D",
"1+	c #27B361",
"2+	c #26AB5E",
"3+	c #25A85B",
"4+	c #249B58",
"5+	c #258E56",
"6+	c #258855",
"7+	c #258A56",
"8+	c #269259",
"9+	c #26AF5F",
"0+	c #26AD5F",
". . . . . . . . . . . . . . . . . . . . . . ",
". . . . . . . . . + + + + . . . . . . . . . ",
". . . . . . . @ @ # $ $ % + & . . . . . . . ",
". . . . . + * = - ; > , ' ) ! + @ . . . . . ",
". . . . @ ~ ) { ] ^ / ( _ : < [ } * . . . . ",
". . . + | 1 2 3 4 5 6 7 8 9 0 a b c @ . . . ",
". . . & d 2 e f g h i j k l m n o p q + . . ",
". . @ r s 3 t h u v w h h h x y z A B & . . ",
". . C D E F G h H I J h h h h g K : L M . . ",
". + N O P Q h h R S T U h h h h V W X Y + . ",
". . Z `  ...h h h +.@.#.$.%.&.*.=.-.;.>.+ . ",
". ,.'.).!.~.h h h {.].^./.(._.:.<.[.}.= + . ",
". |.1.2.3.4.h h 5.6.7.8.9.0.a.b.c.d.e.f.+ . ",
". . g.h.i.j.k.h l.m.n.o.h h h j p.q.r.s.+ . ",
". . t.u.v.w.x.y.z.h h h h h h A.B.C.D.E.. . ",
". . F.G.H.I.J.K.L.h h h h h M.N.O.P.Q.+ . . ",
". . R.S.T.U.V.W.X.Y.Z.`. +.+++@+#+$+%+. . . ",
". . . . &+*+=+-+;+!.>+,+'+)+!+~+$+{+. . . . ",
". . . . . ]+^+/+(+_+:+<+[+=+}+|+1+. . . . . ",
". . . . . + 2+3+4+5+6+7+8+N 9+@ . . . . . . ",
". . . . . . . . |.0+0+0+. + . . . . . . . . ",
". . . . . . . . . . . . . . . . . . . . . . "};
